<?xml version="1.0" encoding="UTF-8"?>
<svg version="1.1" viewBox="0 0 2000 2000" width="2000" height="2000" xmlns="http://www.w3.org/2000/svg">
<path transform="translate(328,620)" d="m0 0h30l12 4v2l5 2 3 3v2h2l4 6 4 15v12l-2 13-4 12 11-9 9-8h2v-2l12-8 10-7 11-7 4-2h3v-2l21-10 18-6 18-4 12-1h17l9 1 11 4v2l6 2 10 10 8 13 2 7 2 10v19l-1 2-1 9h-2v6l-15 33-5 12-7 15-7 16-9 20-5 13-3 5-5 13-7 15-5 12-5 11-9 21-8 19-5 11-3 8-5 11-10 24-6 13-5 14-5 12-6 22-1 6v12l2 14 5 15 7 11v2h2v2h2v2h2v2l6 2 12 5 8 2 19 2h23l52-4 41-4 5-1 16-1 3-1 15-1 4-1 14-1 20-3 31-3 25-3 34-3 30-3 17-1 5-1 19-1 6-1 24-1 7-1 26-1 9-1 31-1 16-1 47-1 29-1h93l38 1 58 1 18 1 34 1 10 1 28 1 10 1 24 1 7 1 21 1 7 1 44 3 34 3 42 3 59 6 5 1 14 1 2 1 25 3 13 2 12 3 15 3 31 9 16 7 16 8 17 12 5 4v2h2l7 10 5 12 2 10v11l-3 13-5 8-6 6h-2v2l-10 6-12 6-20 6-15 2h-14l-23-3-16-3-16-4-8-3-11-3-7-3-16-6-12-4-27-10-17-5-18-5-20-4-12-2-12-1-3-1-16-1-3-1-12-1-2-1-16-1-5-1-18-1-7-1-34-1-11-1h-60l-45 2-4 1-20 1-20 2-19 3-24 3-32 6-18 4-11 3-13 3-21 6-38 13-10 4-10 3-11 5-13 5-23 10-5 3-8 3-14 7-11-3-10-3-1-1-7-1-9-3-29-6-31-4-23-2h-77l-30 2 1-3 33-11 7-3 17-5 31-10 23-7 13-3 9-3 56-14 22-5 11-3 15-3 42-9 26-5 4-1 9-2 9-1 2-1 20-3 16-3 26-4 52-6 52-4h88l58 4 39 4 18 2 19 3 23 3 15 3 26 5 24 7 23 7 11 5 13 5 15 7 16 7v2l5 1 12 5 11 5 20 8 26 8 6 2 9 2 13 2h31l12-2 12-4 14-7 6-5 5-9 2-9v-11l-2-8-5-10-1-3h-2l-4-5v-2l-4-2-3-2v-2l-4-2-14-9-11-6-4-1v-2l-6-1-10-4-24-6-21-4-12-2-25-2-20-1-6-1-21-1-7-1-23-1-6-1-19-1-8-1-21-1-8-1-20-1-8-1-64-2h-157l-42 2-8 1-21 1-4 1-21 1-3 1-25 1-3 1-16 1-3 1-16 1-2 1-14 1-23 3-30 3-36 5-11 1-3 1-14 1-14 3-16 1-12 2-2 1-9 1-2 1-20 3-52 10-20 4-12 3-18 3-11 3-37 8-16 4-15 3-17 5-9 1-11 3-16 3-53 11-17 3-1 1-21 3-2 1-13 2-9 2-9 1h-32l-19-3-17-4-14-5-7-3v-2l-5-1-11-7-13-12-7-9-6-10-6-12-3-11-1-1-1-7-1-1-2-11-1-12v-29l2-19 1-8 1-1 3-17 4-16 12-36 6-16 5-11 11-23 9-17 3-7h2l1-4 6-11 11-20 11-19 6-11 10-18 5-13h2l1-5 11-27 5-11 6-16 2-6 2-13-1-11-1-7-1-4h-2l-4-5-9-4h-14l-17 6-4 1v2l-11 6-13 11h-2v2h-2v2h-2l-2 4-9 9-1 2h-2l-2 4-4 6h-2l-2 4-12 17-4 7h-2l-2 6h-2l-1 4-8 16-7 16-8 19-3 5-3 8-7 15-7 16-5 10-3 9h-2l-1 5-12 27-4 8-5 13-2 5h-2l-1 5-9 20-5 11-1 4h-2l-1 5-3 8-3 5-4 10-3 8-13 4-21 5-24 6-10 3-16 3-9 2h-3l1-4 9-19 8-16 8-19 3-5 3-8 7-15 9-20 7-14 5-13 7-15 8-17 9-20 15-33 7-16 7-15 9-20 5-10 3-8 7-14 7-17 5-9 3-8 7-15 4-13v-14l-3-4v-2l-6-1h-12l-20 6-11 6-11 7-7 6h-2v2l-5 2v2h-2v2h-2v2h-2l-2 4-8 10h-2l-2 5-7 10-8 17-4 13-1 6v15l2 8 6 12h2v2l5 2 10 5 5 2-8 18-5 9-1 4h-2v4h-2l-1 5-11 23-8 16-4 10-4 1-17-14-3-3v-2h-2v-2h-2l-10-14-7-16-3-9-2-9v-38l4-18 8-22 8-16h2l1-4 7-12 7-8 3-5h2l2-4 2-3h2l2-4 4-2 2-4h2v-2h2v-2h2v-2h2v-2l6-5h2v-2l4-3h2v-2l15-11 11-7 9-6 4-2h3v-2h4v-2l16-7 11-5 15-6 10-3 7-3 15-3z" fill="#FEFFFE"/>
<path transform="translate(1237,677)" d="m0 0h15l15 1 20 4 16 5 17 7 18 10 14 10 11 10 5 4v2h2l7 8 13 18 9 16 6 13 6 18 4 20 1 14v19l-2 19-5 21-8 20-9 17-8 12-11 13-16 16-14 11-15 9-19 9-18 6-18 4-7 1h-44l-21-4-24-8-16-8-12-7-16-12-12-11-12-13-11-16-9-16-8-19-5-18-3-20v-32l3-20 6-21 9-20 10-17 10-13 14-15 11-10 16-11 18-10 21-8 18-5 12-2z" fill="#FEFFFE"/>
<path transform="translate(1818,656)" d="m0 0h13l18 3 14 5 13 7 10 8 8 8 7 10 6 13 3 11 1 7v18l-16 93-13 73-14 80-7 39-4 8-4 2h-60l-5-5v-8l13-74 1-3h-57l-2 6-13 74-3 7-5 3h-61l-4-4v-10l17-97 27-154 6-32 5-15 8-15 9-12 9-10 9-8 14-10 15-8 18-6 14-3zm-8 66-9 2-9 6-7 7-5 10-4 18-21 119 1 3h56l2-2 12-67 11-62v-14l-3-9-5-6-8-4z" fill="#EA5812"/>
<path transform="translate(1493,662)" d="m0 0h103l16 2 15 5 10 5 11 8 7 7 7 10 7 14 4 17 1 18-4 27-6 32-5 15-6 11-9 12-8 9-14 11-6 4 2 5 6 8 6 12 4 15 2 18v17l-3 27-7 41-4 20-4 6-2 2h-60l-6-5v-10l11-65v-29l-3-12-6-10-5-5-10-6-12-3-8-1-3 21-13 73-7 40-3 9-4 3-3 1h-59l-4-2-1-2v-9l18-102 23-131 22-124 4-6 2-2zm53 67-7 37-12 70 1 1h31l12-3 9-6 7-8 4-10 9-51v-10l-3-9-5-6-8-4-4-1z" fill="#EA5812"/>
<path transform="translate(871,653)" d="m0 0h54l6 2 2 3v8l-14 79-10 57-1 3h60l1-9 16-89 8-45 3-5 3-3 5-1h56l5 3 1 2v9l-15 84-14 80-18 101-14 80-3 14-5 5-2 1h-61l-4-4v-10l25-142v-4h-58l-15 84-12 68-4 6-3 2h-62l-4-4v-10l24-135 14-80 24-137 4-10 3-2z" fill="#EA5812"/>
<path transform="translate(649,776)" d="m0 0 13 2 10 4 6 5v2h2l4 9v19l-6 12-2 3h-2v2h-2v2l-8 4-7 2-10 1-1-4h2l1-5v-8l-1-4-5-2-7-1-11 3h-3v2l-9 5-3 3h-2l-2 4-4 5h-2l-2 5h-2l-2 4-11 18-3 6h-2v4h-2l-1 5-5 12-4 10-5 17-2 9v26l4 8 7 4h12l16-6 13-9 5-13 7-14 5-13 7-15 7-17 7-14 5-13 2-5 5-2 7-2 8-3 7-6 6-11 2-6v-20l-1-6h19l5 1 24 1 6 2-2 6-7 15-5 13h-2l-1 4-4 10-7 17-7 15-6 13-3 9h-2l-1 5-13 30-5 10-2 5-1 6h-2l-1 7v9l1 4 4 1h7l11-4 15-8 7-5h2v-2h2v-2h2v-2l7-6h3v35l-6 7h-2v2h-2v2l-5 4h-2v2l-5 2v2l-5 4h-3v2l-16 10-8 4-14 4-19 1-10-1-14-7-7-7-6-10-2-9-8 5h-2v2l-9 5-10 5-15 6-10 2h-28l-15-8-5-5-6-9-4-11-1-10v-18l1-14 1-1 3-16 3-8 5-15 6-15 9-17 6-11 7-12h2l2-5 6-9h2l2-5 4-5h2v-2h2l2-4 8-8h2v-2h2v-2l17-12 6-4h3v-2l18-8 14-4z" fill="#FEFFFE"/>
<path transform="translate(1237,677)" d="m0 0h15l15 1 20 4 16 5 17 7 18 10 14 10 11 10 5 4v2h2l7 8 13 18 9 16 6 13 6 18 4 20 1 14v19l-2 19-5 21-8 20-9 17-8 12-11 13-16 16-14 11-15 9-19 9-18 6-18 4-7 1h-44l-21-4-24-8-16-8-12-7-16-12-12-11-12-13-11-16-9-16-8-19-5-18-3-20v-32l3-20 6-21 9-20 10-17 10-13 14-15 11-10 16-11 18-10 21-8 18-5 12-2zm-13 35-19 4-19 7-13 7-12 8-13 11-10 10-12 17-6 10-8 20-4 16-1 7v35l3 16 6 18 8 16 9 13 5 7h2l2 4 10 10 13 10 13 8 18 8 18 5 11 2 12 1h17l20-3 18-5 14-6 14-8 13-10 3-2v-2l4-2 6-6v-2h2l12-16 8-14 4-8 6-18 3-17v-31l-2-13-3-13-7-17-9-16-10-13-9-10-9-8h-2v-2l-18-12-18-8-19-6-10-2z" fill="#EA5812"/>
<path transform="translate(1242,751)" d="m0 0 7 2 3 5 1 78 3 3 1 9 4 2 23 23 2 1v2h2v2l4 2 25 25 1 2v8l-5 4h-6l-8-7-25-25-2-1v-2h-2v-2l-4-2-20-20-10-2-5-6-1-2v-8l4-6 1-79 4-5z" fill="#EA5812"/>
<path transform="translate(1240,943)" d="m0 0h6l5 4 1 2v16l-5 5h-8l-4-4v-19z" fill="#EA5812"/>
<path transform="translate(1239,718)" d="m0 0h8l4 3 1 3v15l-4 5h-9l-4-4v-18z" fill="#EA5812"/>
<path transform="translate(1352,838)" d="m0 0h19l4 4v8l-4 4h-19l-4-4v-8z" fill="#EA5812"/>
<path transform="translate(1116,838)" d="m0 0h19l4 3v9l-4 4h-18l-5-5v-6z" fill="#EA5812"/>
</svg>
